<mxfile host="app.diagrams.net" modified="2024-04-29T21:06:51.179Z" agent="Mozilla/5.0 (Windows NT 10.0; Win64; x64) AppleWebKit/537.36 (KHTML, like Gecko) Chrome/124.0.0.0 Safari/537.36" etag="0hN3kp-JpGHmQr3cJI4Z" version="24.3.0" type="device" pages="2">
  <diagram name="Страница — 1" id="AhBoDI6RRKUJDSlQ_JTb">
    <mxGraphModel dx="1434" dy="780" grid="1" gridSize="10" guides="1" tooltips="1" connect="1" arrows="1" fold="1" page="1" pageScale="1" pageWidth="827" pageHeight="1169" math="0" shadow="0">
      <root>
        <mxCell id="0" />
        <mxCell id="1" parent="0" />
      </root>
    </mxGraphModel>
  </diagram>
  <diagram id="KcSJRZEg5JFpIqF_tfhk" name="Страница — 2">
    <mxGraphModel dx="1434" dy="780" grid="1" gridSize="10" guides="1" tooltips="1" connect="1" arrows="1" fold="1" page="1" pageScale="1" pageWidth="827" pageHeight="1169" math="0" shadow="0">
      <root>
        <mxCell id="0" />
        <mxCell id="1" parent="0" />
        <mxCell id="q1uMQkKLB1eeLAh6NgJD-20" value="" style="shape=table;startSize=0;container=1;collapsible=0;childLayout=tableLayout;" vertex="1" parent="1">
          <mxGeometry x="40" y="120" width="160" height="320" as="geometry" />
        </mxCell>
        <mxCell id="q1uMQkKLB1eeLAh6NgJD-21" value="" style="shape=tableRow;horizontal=0;startSize=0;swimlaneHead=0;swimlaneBody=0;strokeColor=inherit;top=0;left=0;bottom=0;right=0;collapsible=0;dropTarget=0;fillColor=none;points=[[0,0.5],[1,0.5]];portConstraint=eastwest;" vertex="1" parent="q1uMQkKLB1eeLAh6NgJD-20">
          <mxGeometry width="160" height="50" as="geometry" />
        </mxCell>
        <mxCell id="q1uMQkKLB1eeLAh6NgJD-22" value="AddressBook" style="shape=partialRectangle;html=1;whiteSpace=wrap;connectable=0;strokeColor=inherit;overflow=hidden;fillColor=none;top=0;left=0;bottom=0;right=0;pointerEvents=1;" vertex="1" parent="q1uMQkKLB1eeLAh6NgJD-21">
          <mxGeometry width="160" height="50" as="geometry">
            <mxRectangle width="160" height="50" as="alternateBounds" />
          </mxGeometry>
        </mxCell>
        <mxCell id="q1uMQkKLB1eeLAh6NgJD-23" value="" style="shape=tableRow;horizontal=0;startSize=0;swimlaneHead=0;swimlaneBody=0;strokeColor=inherit;top=0;left=0;bottom=0;right=0;collapsible=0;dropTarget=0;fillColor=none;points=[[0,0.5],[1,0.5]];portConstraint=eastwest;" vertex="1" parent="q1uMQkKLB1eeLAh6NgJD-20">
          <mxGeometry y="50" width="160" height="30" as="geometry" />
        </mxCell>
        <mxCell id="q1uMQkKLB1eeLAh6NgJD-24" value="+data" style="shape=partialRectangle;html=1;whiteSpace=wrap;connectable=0;strokeColor=inherit;overflow=hidden;fillColor=none;top=0;left=0;bottom=0;right=0;pointerEvents=1;align=left;" vertex="1" parent="q1uMQkKLB1eeLAh6NgJD-23">
          <mxGeometry width="160" height="30" as="geometry">
            <mxRectangle width="160" height="30" as="alternateBounds" />
          </mxGeometry>
        </mxCell>
        <mxCell id="q1uMQkKLB1eeLAh6NgJD-30" value="" style="shape=tableRow;horizontal=0;startSize=0;swimlaneHead=0;swimlaneBody=0;strokeColor=inherit;top=0;left=0;bottom=0;right=0;collapsible=0;dropTarget=0;fillColor=none;points=[[0,0.5],[1,0.5]];portConstraint=eastwest;" vertex="1" parent="q1uMQkKLB1eeLAh6NgJD-20">
          <mxGeometry y="80" width="160" height="30" as="geometry" />
        </mxCell>
        <mxCell id="q1uMQkKLB1eeLAh6NgJD-31" value="+add_record()" style="shape=partialRectangle;html=1;whiteSpace=wrap;connectable=0;strokeColor=inherit;overflow=hidden;fillColor=none;top=0;left=0;bottom=0;right=0;pointerEvents=1;align=left;" vertex="1" parent="q1uMQkKLB1eeLAh6NgJD-30">
          <mxGeometry width="160" height="30" as="geometry">
            <mxRectangle width="160" height="30" as="alternateBounds" />
          </mxGeometry>
        </mxCell>
        <mxCell id="q1uMQkKLB1eeLAh6NgJD-32" value="" style="shape=tableRow;horizontal=0;startSize=0;swimlaneHead=0;swimlaneBody=0;strokeColor=inherit;top=0;left=0;bottom=0;right=0;collapsible=0;dropTarget=0;fillColor=none;points=[[0,0.5],[1,0.5]];portConstraint=eastwest;" vertex="1" parent="q1uMQkKLB1eeLAh6NgJD-20">
          <mxGeometry y="110" width="160" height="30" as="geometry" />
        </mxCell>
        <mxCell id="q1uMQkKLB1eeLAh6NgJD-33" value="+find()" style="shape=partialRectangle;html=1;whiteSpace=wrap;connectable=0;strokeColor=inherit;overflow=hidden;fillColor=none;top=0;left=0;bottom=0;right=0;pointerEvents=1;align=left;" vertex="1" parent="q1uMQkKLB1eeLAh6NgJD-32">
          <mxGeometry width="160" height="30" as="geometry">
            <mxRectangle width="160" height="30" as="alternateBounds" />
          </mxGeometry>
        </mxCell>
        <mxCell id="q1uMQkKLB1eeLAh6NgJD-34" value="" style="shape=tableRow;horizontal=0;startSize=0;swimlaneHead=0;swimlaneBody=0;strokeColor=inherit;top=0;left=0;bottom=0;right=0;collapsible=0;dropTarget=0;fillColor=none;points=[[0,0.5],[1,0.5]];portConstraint=eastwest;" vertex="1" parent="q1uMQkKLB1eeLAh6NgJD-20">
          <mxGeometry y="140" width="160" height="30" as="geometry" />
        </mxCell>
        <mxCell id="q1uMQkKLB1eeLAh6NgJD-35" value="+delete()" style="shape=partialRectangle;html=1;whiteSpace=wrap;connectable=0;strokeColor=inherit;overflow=hidden;fillColor=none;top=0;left=0;bottom=0;right=0;pointerEvents=1;align=left;" vertex="1" parent="q1uMQkKLB1eeLAh6NgJD-34">
          <mxGeometry width="160" height="30" as="geometry">
            <mxRectangle width="160" height="30" as="alternateBounds" />
          </mxGeometry>
        </mxCell>
        <mxCell id="q1uMQkKLB1eeLAh6NgJD-36" value="" style="shape=tableRow;horizontal=0;startSize=0;swimlaneHead=0;swimlaneBody=0;strokeColor=inherit;top=0;left=0;bottom=0;right=0;collapsible=0;dropTarget=0;fillColor=none;points=[[0,0.5],[1,0.5]];portConstraint=eastwest;" vertex="1" parent="q1uMQkKLB1eeLAh6NgJD-20">
          <mxGeometry y="170" width="160" height="30" as="geometry" />
        </mxCell>
        <mxCell id="q1uMQkKLB1eeLAh6NgJD-37" value="+find_next_weekday()" style="shape=partialRectangle;html=1;whiteSpace=wrap;connectable=0;strokeColor=inherit;overflow=hidden;fillColor=none;top=0;left=0;bottom=0;right=0;pointerEvents=1;align=left;" vertex="1" parent="q1uMQkKLB1eeLAh6NgJD-36">
          <mxGeometry width="160" height="30" as="geometry">
            <mxRectangle width="160" height="30" as="alternateBounds" />
          </mxGeometry>
        </mxCell>
        <mxCell id="q1uMQkKLB1eeLAh6NgJD-38" value="" style="shape=tableRow;horizontal=0;startSize=0;swimlaneHead=0;swimlaneBody=0;strokeColor=inherit;top=0;left=0;bottom=0;right=0;collapsible=0;dropTarget=0;fillColor=none;points=[[0,0.5],[1,0.5]];portConstraint=eastwest;" vertex="1" parent="q1uMQkKLB1eeLAh6NgJD-20">
          <mxGeometry y="200" width="160" height="30" as="geometry" />
        </mxCell>
        <mxCell id="q1uMQkKLB1eeLAh6NgJD-39" value="+parse_birthdays()" style="shape=partialRectangle;html=1;whiteSpace=wrap;connectable=0;strokeColor=inherit;overflow=hidden;fillColor=none;top=0;left=0;bottom=0;right=0;pointerEvents=1;align=left;" vertex="1" parent="q1uMQkKLB1eeLAh6NgJD-38">
          <mxGeometry width="160" height="30" as="geometry">
            <mxRectangle width="160" height="30" as="alternateBounds" />
          </mxGeometry>
        </mxCell>
        <mxCell id="q1uMQkKLB1eeLAh6NgJD-40" value="" style="shape=tableRow;horizontal=0;startSize=0;swimlaneHead=0;swimlaneBody=0;strokeColor=inherit;top=0;left=0;bottom=0;right=0;collapsible=0;dropTarget=0;fillColor=none;points=[[0,0.5],[1,0.5]];portConstraint=eastwest;" vertex="1" parent="q1uMQkKLB1eeLAh6NgJD-20">
          <mxGeometry y="230" width="160" height="30" as="geometry" />
        </mxCell>
        <mxCell id="q1uMQkKLB1eeLAh6NgJD-41" value="+get_upcoming_birthday()" style="shape=partialRectangle;html=1;whiteSpace=wrap;connectable=0;strokeColor=inherit;overflow=hidden;fillColor=none;top=0;left=0;bottom=0;right=0;pointerEvents=1;align=left;" vertex="1" parent="q1uMQkKLB1eeLAh6NgJD-40">
          <mxGeometry width="160" height="30" as="geometry">
            <mxRectangle width="160" height="30" as="alternateBounds" />
          </mxGeometry>
        </mxCell>
        <mxCell id="q1uMQkKLB1eeLAh6NgJD-46" value="" style="shape=tableRow;horizontal=0;startSize=0;swimlaneHead=0;swimlaneBody=0;strokeColor=inherit;top=0;left=0;bottom=0;right=0;collapsible=0;dropTarget=0;fillColor=none;points=[[0,0.5],[1,0.5]];portConstraint=eastwest;" vertex="1" parent="q1uMQkKLB1eeLAh6NgJD-20">
          <mxGeometry y="260" width="160" height="30" as="geometry" />
        </mxCell>
        <mxCell id="q1uMQkKLB1eeLAh6NgJD-47" value="+save_data()" style="shape=partialRectangle;html=1;whiteSpace=wrap;connectable=0;strokeColor=inherit;overflow=hidden;fillColor=none;top=0;left=0;bottom=0;right=0;pointerEvents=1;align=left;" vertex="1" parent="q1uMQkKLB1eeLAh6NgJD-46">
          <mxGeometry width="160" height="30" as="geometry">
            <mxRectangle width="160" height="30" as="alternateBounds" />
          </mxGeometry>
        </mxCell>
        <mxCell id="q1uMQkKLB1eeLAh6NgJD-48" value="" style="shape=tableRow;horizontal=0;startSize=0;swimlaneHead=0;swimlaneBody=0;strokeColor=inherit;top=0;left=0;bottom=0;right=0;collapsible=0;dropTarget=0;fillColor=none;points=[[0,0.5],[1,0.5]];portConstraint=eastwest;" vertex="1" parent="q1uMQkKLB1eeLAh6NgJD-20">
          <mxGeometry y="290" width="160" height="30" as="geometry" />
        </mxCell>
        <mxCell id="q1uMQkKLB1eeLAh6NgJD-49" value="+load_data()" style="shape=partialRectangle;html=1;whiteSpace=wrap;connectable=0;strokeColor=inherit;overflow=hidden;fillColor=none;top=0;left=0;bottom=0;right=0;pointerEvents=1;align=left;" vertex="1" parent="q1uMQkKLB1eeLAh6NgJD-48">
          <mxGeometry width="160" height="30" as="geometry">
            <mxRectangle width="160" height="30" as="alternateBounds" />
          </mxGeometry>
        </mxCell>
        <mxCell id="q1uMQkKLB1eeLAh6NgJD-50" style="edgeStyle=orthogonalEdgeStyle;rounded=0;orthogonalLoop=1;jettySize=auto;html=1;exitX=1;exitY=0.5;exitDx=0;exitDy=0;entryX=0;entryY=0.5;entryDx=0;entryDy=0;" edge="1" parent="1" source="q1uMQkKLB1eeLAh6NgJD-34" target="q1uMQkKLB1eeLAh6NgJD-60">
          <mxGeometry relative="1" as="geometry">
            <mxPoint x="450" y="275.20000000000005" as="targetPoint" />
          </mxGeometry>
        </mxCell>
        <mxCell id="q1uMQkKLB1eeLAh6NgJD-51" value="" style="shape=table;startSize=0;container=1;collapsible=0;childLayout=tableLayout;" vertex="1" parent="1">
          <mxGeometry x="440" y="120" width="160" height="290" as="geometry" />
        </mxCell>
        <mxCell id="q1uMQkKLB1eeLAh6NgJD-52" value="" style="shape=tableRow;horizontal=0;startSize=0;swimlaneHead=0;swimlaneBody=0;strokeColor=inherit;top=0;left=0;bottom=0;right=0;collapsible=0;dropTarget=0;fillColor=none;points=[[0,0.5],[1,0.5]];portConstraint=eastwest;" vertex="1" parent="q1uMQkKLB1eeLAh6NgJD-51">
          <mxGeometry width="160" height="50" as="geometry" />
        </mxCell>
        <mxCell id="q1uMQkKLB1eeLAh6NgJD-53" value="Record" style="shape=partialRectangle;html=1;whiteSpace=wrap;connectable=0;strokeColor=inherit;overflow=hidden;fillColor=none;top=0;left=0;bottom=0;right=0;pointerEvents=1;" vertex="1" parent="q1uMQkKLB1eeLAh6NgJD-52">
          <mxGeometry width="160" height="50" as="geometry">
            <mxRectangle width="160" height="50" as="alternateBounds" />
          </mxGeometry>
        </mxCell>
        <mxCell id="q1uMQkKLB1eeLAh6NgJD-54" value="" style="shape=tableRow;horizontal=0;startSize=0;swimlaneHead=0;swimlaneBody=0;strokeColor=inherit;top=0;left=0;bottom=0;right=0;collapsible=0;dropTarget=0;fillColor=none;points=[[0,0.5],[1,0.5]];portConstraint=eastwest;" vertex="1" parent="q1uMQkKLB1eeLAh6NgJD-51">
          <mxGeometry y="50" width="160" height="30" as="geometry" />
        </mxCell>
        <mxCell id="q1uMQkKLB1eeLAh6NgJD-55" value="+name" style="shape=partialRectangle;html=1;whiteSpace=wrap;connectable=0;strokeColor=inherit;overflow=hidden;fillColor=none;top=0;left=0;bottom=0;right=0;pointerEvents=1;align=left;" vertex="1" parent="q1uMQkKLB1eeLAh6NgJD-54">
          <mxGeometry width="160" height="30" as="geometry">
            <mxRectangle width="160" height="30" as="alternateBounds" />
          </mxGeometry>
        </mxCell>
        <mxCell id="q1uMQkKLB1eeLAh6NgJD-56" value="" style="shape=tableRow;horizontal=0;startSize=0;swimlaneHead=0;swimlaneBody=0;strokeColor=inherit;top=0;left=0;bottom=0;right=0;collapsible=0;dropTarget=0;fillColor=none;points=[[0,0.5],[1,0.5]];portConstraint=eastwest;" vertex="1" parent="q1uMQkKLB1eeLAh6NgJD-51">
          <mxGeometry y="80" width="160" height="30" as="geometry" />
        </mxCell>
        <mxCell id="q1uMQkKLB1eeLAh6NgJD-57" value="+phones" style="shape=partialRectangle;html=1;whiteSpace=wrap;connectable=0;strokeColor=inherit;overflow=hidden;fillColor=none;top=0;left=0;bottom=0;right=0;pointerEvents=1;align=left;" vertex="1" parent="q1uMQkKLB1eeLAh6NgJD-56">
          <mxGeometry width="160" height="30" as="geometry">
            <mxRectangle width="160" height="30" as="alternateBounds" />
          </mxGeometry>
        </mxCell>
        <mxCell id="q1uMQkKLB1eeLAh6NgJD-58" value="" style="shape=tableRow;horizontal=0;startSize=0;swimlaneHead=0;swimlaneBody=0;strokeColor=inherit;top=0;left=0;bottom=0;right=0;collapsible=0;dropTarget=0;fillColor=none;points=[[0,0.5],[1,0.5]];portConstraint=eastwest;" vertex="1" parent="q1uMQkKLB1eeLAh6NgJD-51">
          <mxGeometry y="110" width="160" height="30" as="geometry" />
        </mxCell>
        <mxCell id="q1uMQkKLB1eeLAh6NgJD-59" value="+birthday" style="shape=partialRectangle;html=1;whiteSpace=wrap;connectable=0;strokeColor=inherit;overflow=hidden;fillColor=none;top=0;left=0;bottom=0;right=0;pointerEvents=1;align=left;" vertex="1" parent="q1uMQkKLB1eeLAh6NgJD-58">
          <mxGeometry width="160" height="30" as="geometry">
            <mxRectangle width="160" height="30" as="alternateBounds" />
          </mxGeometry>
        </mxCell>
        <mxCell id="q1uMQkKLB1eeLAh6NgJD-60" value="" style="shape=tableRow;horizontal=0;startSize=0;swimlaneHead=0;swimlaneBody=0;strokeColor=inherit;top=0;left=0;bottom=0;right=0;collapsible=0;dropTarget=0;fillColor=none;points=[[0,0.5],[1,0.5]];portConstraint=eastwest;" vertex="1" parent="q1uMQkKLB1eeLAh6NgJD-51">
          <mxGeometry y="140" width="160" height="30" as="geometry" />
        </mxCell>
        <mxCell id="q1uMQkKLB1eeLAh6NgJD-61" value="+add_phone()" style="shape=partialRectangle;html=1;whiteSpace=wrap;connectable=0;strokeColor=inherit;overflow=hidden;fillColor=none;top=0;left=0;bottom=0;right=0;pointerEvents=1;align=left;" vertex="1" parent="q1uMQkKLB1eeLAh6NgJD-60">
          <mxGeometry width="160" height="30" as="geometry">
            <mxRectangle width="160" height="30" as="alternateBounds" />
          </mxGeometry>
        </mxCell>
        <mxCell id="q1uMQkKLB1eeLAh6NgJD-62" value="" style="shape=tableRow;horizontal=0;startSize=0;swimlaneHead=0;swimlaneBody=0;strokeColor=inherit;top=0;left=0;bottom=0;right=0;collapsible=0;dropTarget=0;fillColor=none;points=[[0,0.5],[1,0.5]];portConstraint=eastwest;" vertex="1" parent="q1uMQkKLB1eeLAh6NgJD-51">
          <mxGeometry y="170" width="160" height="30" as="geometry" />
        </mxCell>
        <mxCell id="q1uMQkKLB1eeLAh6NgJD-63" value="+remove_phone()" style="shape=partialRectangle;html=1;whiteSpace=wrap;connectable=0;strokeColor=inherit;overflow=hidden;fillColor=none;top=0;left=0;bottom=0;right=0;pointerEvents=1;align=left;" vertex="1" parent="q1uMQkKLB1eeLAh6NgJD-62">
          <mxGeometry width="160" height="30" as="geometry">
            <mxRectangle width="160" height="30" as="alternateBounds" />
          </mxGeometry>
        </mxCell>
        <mxCell id="q1uMQkKLB1eeLAh6NgJD-64" value="" style="shape=tableRow;horizontal=0;startSize=0;swimlaneHead=0;swimlaneBody=0;strokeColor=inherit;top=0;left=0;bottom=0;right=0;collapsible=0;dropTarget=0;fillColor=none;points=[[0,0.5],[1,0.5]];portConstraint=eastwest;" vertex="1" parent="q1uMQkKLB1eeLAh6NgJD-51">
          <mxGeometry y="200" width="160" height="30" as="geometry" />
        </mxCell>
        <mxCell id="q1uMQkKLB1eeLAh6NgJD-65" value="+add_birthday" style="shape=partialRectangle;html=1;whiteSpace=wrap;connectable=0;strokeColor=inherit;overflow=hidden;fillColor=none;top=0;left=0;bottom=0;right=0;pointerEvents=1;align=left;" vertex="1" parent="q1uMQkKLB1eeLAh6NgJD-64">
          <mxGeometry width="160" height="30" as="geometry">
            <mxRectangle width="160" height="30" as="alternateBounds" />
          </mxGeometry>
        </mxCell>
        <mxCell id="q1uMQkKLB1eeLAh6NgJD-66" value="" style="shape=tableRow;horizontal=0;startSize=0;swimlaneHead=0;swimlaneBody=0;strokeColor=inherit;top=0;left=0;bottom=0;right=0;collapsible=0;dropTarget=0;fillColor=none;points=[[0,0.5],[1,0.5]];portConstraint=eastwest;" vertex="1" parent="q1uMQkKLB1eeLAh6NgJD-51">
          <mxGeometry y="230" width="160" height="30" as="geometry" />
        </mxCell>
        <mxCell id="q1uMQkKLB1eeLAh6NgJD-67" value="+show_birthday()" style="shape=partialRectangle;html=1;whiteSpace=wrap;connectable=0;strokeColor=inherit;overflow=hidden;fillColor=none;top=0;left=0;bottom=0;right=0;pointerEvents=1;align=left;" vertex="1" parent="q1uMQkKLB1eeLAh6NgJD-66">
          <mxGeometry width="160" height="30" as="geometry">
            <mxRectangle width="160" height="30" as="alternateBounds" />
          </mxGeometry>
        </mxCell>
        <mxCell id="q1uMQkKLB1eeLAh6NgJD-68" value="" style="shape=tableRow;horizontal=0;startSize=0;swimlaneHead=0;swimlaneBody=0;strokeColor=inherit;top=0;left=0;bottom=0;right=0;collapsible=0;dropTarget=0;fillColor=none;points=[[0,0.5],[1,0.5]];portConstraint=eastwest;" vertex="1" parent="q1uMQkKLB1eeLAh6NgJD-51">
          <mxGeometry y="260" width="160" height="30" as="geometry" />
        </mxCell>
        <mxCell id="q1uMQkKLB1eeLAh6NgJD-69" value="+__str__()" style="shape=partialRectangle;html=1;whiteSpace=wrap;connectable=0;strokeColor=inherit;overflow=hidden;fillColor=none;top=0;left=0;bottom=0;right=0;pointerEvents=1;align=left;" vertex="1" parent="q1uMQkKLB1eeLAh6NgJD-68">
          <mxGeometry width="160" height="30" as="geometry">
            <mxRectangle width="160" height="30" as="alternateBounds" />
          </mxGeometry>
        </mxCell>
        <mxCell id="q1uMQkKLB1eeLAh6NgJD-82" style="edgeStyle=orthogonalEdgeStyle;rounded=0;orthogonalLoop=1;jettySize=auto;html=1;exitX=1;exitY=0.5;exitDx=0;exitDy=0;" edge="1" parent="1" source="q1uMQkKLB1eeLAh6NgJD-68">
          <mxGeometry relative="1" as="geometry">
            <mxPoint x="520" y="480" as="targetPoint" />
          </mxGeometry>
        </mxCell>
        <mxCell id="q1uMQkKLB1eeLAh6NgJD-103" style="edgeStyle=orthogonalEdgeStyle;rounded=0;orthogonalLoop=1;jettySize=auto;html=1;exitX=0.5;exitY=1;exitDx=0;exitDy=0;" edge="1" parent="1" source="q1uMQkKLB1eeLAh6NgJD-83">
          <mxGeometry relative="1" as="geometry">
            <mxPoint x="520" y="600" as="targetPoint" />
          </mxGeometry>
        </mxCell>
        <mxCell id="q1uMQkKLB1eeLAh6NgJD-83" value="" style="shape=table;startSize=0;container=1;collapsible=0;childLayout=tableLayout;" vertex="1" parent="1">
          <mxGeometry x="440" y="480" width="160" height="50" as="geometry" />
        </mxCell>
        <mxCell id="q1uMQkKLB1eeLAh6NgJD-84" value="" style="shape=tableRow;horizontal=0;startSize=0;swimlaneHead=0;swimlaneBody=0;strokeColor=inherit;top=0;left=0;bottom=0;right=0;collapsible=0;dropTarget=0;fillColor=none;points=[[0,0.5],[1,0.5]];portConstraint=eastwest;" vertex="1" parent="q1uMQkKLB1eeLAh6NgJD-83">
          <mxGeometry width="160" height="50" as="geometry" />
        </mxCell>
        <mxCell id="q1uMQkKLB1eeLAh6NgJD-85" value="Field" style="shape=partialRectangle;html=1;whiteSpace=wrap;connectable=0;strokeColor=inherit;overflow=hidden;fillColor=none;top=0;left=0;bottom=0;right=0;pointerEvents=1;" vertex="1" parent="q1uMQkKLB1eeLAh6NgJD-84">
          <mxGeometry width="160" height="50" as="geometry">
            <mxRectangle width="160" height="50" as="alternateBounds" />
          </mxGeometry>
        </mxCell>
        <mxCell id="q1uMQkKLB1eeLAh6NgJD-104" value="" style="shape=table;startSize=0;container=1;collapsible=0;childLayout=tableLayout;" vertex="1" parent="1">
          <mxGeometry x="440" y="600" width="160" height="40" as="geometry" />
        </mxCell>
        <mxCell id="q1uMQkKLB1eeLAh6NgJD-105" value="" style="shape=tableRow;horizontal=0;startSize=0;swimlaneHead=0;swimlaneBody=0;strokeColor=inherit;top=0;left=0;bottom=0;right=0;collapsible=0;dropTarget=0;fillColor=none;points=[[0,0.5],[1,0.5]];portConstraint=eastwest;" vertex="1" parent="q1uMQkKLB1eeLAh6NgJD-104">
          <mxGeometry width="160" height="40" as="geometry" />
        </mxCell>
        <mxCell id="q1uMQkKLB1eeLAh6NgJD-106" value="Name" style="shape=partialRectangle;html=1;whiteSpace=wrap;connectable=0;strokeColor=inherit;overflow=hidden;fillColor=none;top=0;left=0;bottom=0;right=0;pointerEvents=1;" vertex="1" parent="q1uMQkKLB1eeLAh6NgJD-105">
          <mxGeometry width="160" height="40" as="geometry">
            <mxRectangle width="160" height="40" as="alternateBounds" />
          </mxGeometry>
        </mxCell>
        <mxCell id="q1uMQkKLB1eeLAh6NgJD-107" style="edgeStyle=orthogonalEdgeStyle;rounded=0;orthogonalLoop=1;jettySize=auto;html=1;exitX=0;exitY=0.5;exitDx=0;exitDy=0;" edge="1" parent="1" source="q1uMQkKLB1eeLAh6NgJD-84">
          <mxGeometry relative="1" as="geometry">
            <mxPoint x="280" y="600" as="targetPoint" />
          </mxGeometry>
        </mxCell>
        <mxCell id="q1uMQkKLB1eeLAh6NgJD-108" value="" style="shape=table;startSize=0;container=1;collapsible=0;childLayout=tableLayout;" vertex="1" parent="1">
          <mxGeometry x="200" y="600" width="160" height="40" as="geometry" />
        </mxCell>
        <mxCell id="q1uMQkKLB1eeLAh6NgJD-109" value="" style="shape=tableRow;horizontal=0;startSize=0;swimlaneHead=0;swimlaneBody=0;strokeColor=inherit;top=0;left=0;bottom=0;right=0;collapsible=0;dropTarget=0;fillColor=none;points=[[0,0.5],[1,0.5]];portConstraint=eastwest;" vertex="1" parent="q1uMQkKLB1eeLAh6NgJD-108">
          <mxGeometry width="160" height="40" as="geometry" />
        </mxCell>
        <mxCell id="q1uMQkKLB1eeLAh6NgJD-110" value="Phone" style="shape=partialRectangle;html=1;whiteSpace=wrap;connectable=0;strokeColor=inherit;overflow=hidden;fillColor=none;top=0;left=0;bottom=0;right=0;pointerEvents=1;" vertex="1" parent="q1uMQkKLB1eeLAh6NgJD-109">
          <mxGeometry width="160" height="40" as="geometry">
            <mxRectangle width="160" height="40" as="alternateBounds" />
          </mxGeometry>
        </mxCell>
        <mxCell id="q1uMQkKLB1eeLAh6NgJD-111" style="edgeStyle=orthogonalEdgeStyle;rounded=0;orthogonalLoop=1;jettySize=auto;html=1;exitX=1;exitY=0.5;exitDx=0;exitDy=0;" edge="1" parent="1" source="q1uMQkKLB1eeLAh6NgJD-84">
          <mxGeometry relative="1" as="geometry">
            <mxPoint x="760" y="600" as="targetPoint" />
          </mxGeometry>
        </mxCell>
        <mxCell id="q1uMQkKLB1eeLAh6NgJD-112" value="" style="shape=table;startSize=0;container=1;collapsible=0;childLayout=tableLayout;" vertex="1" parent="1">
          <mxGeometry x="680" y="600" width="160" height="40" as="geometry" />
        </mxCell>
        <mxCell id="q1uMQkKLB1eeLAh6NgJD-113" value="" style="shape=tableRow;horizontal=0;startSize=0;swimlaneHead=0;swimlaneBody=0;strokeColor=inherit;top=0;left=0;bottom=0;right=0;collapsible=0;dropTarget=0;fillColor=none;points=[[0,0.5],[1,0.5]];portConstraint=eastwest;" vertex="1" parent="q1uMQkKLB1eeLAh6NgJD-112">
          <mxGeometry width="160" height="40" as="geometry" />
        </mxCell>
        <mxCell id="q1uMQkKLB1eeLAh6NgJD-114" value="Birthday" style="shape=partialRectangle;html=1;whiteSpace=wrap;connectable=0;strokeColor=inherit;overflow=hidden;fillColor=none;top=0;left=0;bottom=0;right=0;pointerEvents=1;" vertex="1" parent="q1uMQkKLB1eeLAh6NgJD-113">
          <mxGeometry width="160" height="40" as="geometry">
            <mxRectangle width="160" height="40" as="alternateBounds" />
          </mxGeometry>
        </mxCell>
      </root>
    </mxGraphModel>
  </diagram>
</mxfile>
